<svg xmlns="http://www.w3.org/2000/svg" viewBox="0 0 64 64" width="64" height="64">
  <defs>
    <linearGradient id="bgGrad" x1="0%" y1="0%" x2="100%" y2="100%">
      <stop offset="0%" stop-color="#1c1917" />
      <stop offset="50%" stop-color="#0c0a09" />
      <stop offset="100%" stop-color="#050505" />
    </linearGradient>
    <linearGradient id="goldGrad" x1="0%" y1="0%" x2="100%" y2="100%">
      <stop offset="0%" stop-color="#fde68a" />
      <stop offset="35%" stop-color="#f59e0b" />
      <stop offset="70%" stop-color="#d97706" />
      <stop offset="100%" stop-color="#92400e" />
    </linearGradient>
    <filter id="glow" x="-20%" y="-20%" width="140%" height="140%">
      <feGaussianBlur stdDeviation="2" result="blur" />
      <feComposite in="SourceGraphic" in2="blur" operator="over" />
    </filter>
  </defs>
  <rect x="3" y="3" width="58" height="58" rx="16" fill="url(#bgGrad)" stroke="url(#goldGrad)" stroke-width="2" />
  <rect x="6" y="6" width="52" height="52" rx="13" fill="none" stroke="url(#goldGrad)" stroke-width="0.75" stroke-opacity="0.4" />
  <g filter="url(#glow)">
    <path d="M32 15 C34.5 15 36 16.5 36 18.5 C36 21 33.5 22 32 23 L32 25" fill="none" stroke="url(#goldGrad)" stroke-width="2.5" stroke-linecap="round" />
    <path d="M18 31 L32 25 L46 31 C47 31.5 48 32.5 47.5 33.5 C47 34.5 45.5 34.5 44.5 34 L32 28.5 L19.5 34 C18.5 34.5 17 34.5 16.5 33.5 C16 32.5 17 31.5 18 31 Z" fill="url(#goldGrad)" />
    <path d="M26.5 38.5 C26.5 37 28 36 30 36 C32 36 33.5 37 33.5 38.2 C33.5 40 30.5 40.5 30.5 42 C30.5 43.5 32 44.5 34 44.5 C35 44.5 36 44 36.5 43.5" fill="none" stroke="url(#goldGrad)" stroke-width="2" stroke-linecap="round" />
    <path d="M36 38 L40 47.5 L44 38" fill="none" stroke="url(#goldGrad)" stroke-width="2" stroke-linecap="round" stroke-linejoin="round" />
    <circle cx="32" cy="51" r="1.5" fill="#fde68a" />
  </g>
</svg>
